bicep_curl
version=1
nRows=304
nColumns=3
inDegrees=yes

# SIMM Motion File Header:
name bicep_curl
datacolumns 3
datarows 304
otherdata 1
range 0.0000 0.3030
endheader
time	/jointset/r_shoulder/r_shoulder_elev/value	/jointset/r_elbow/r_elbow_flex/value
0.0000	0.0000	124.8800
0.0010	0.0000	124.8752
0.0020	0.0000	124.8697
0.0030	0.0000	124.8638
0.0040	0.0000	124.8572
0.0050	0.0000	124.8502
0.0060	0.0000	124.8425
0.0070	0.0000	124.8343
0.0080	0.0000	124.8255
0.0090	0.0000	124.8162
0.0100	0.0000	124.8063
0.0110	0.0000	124.7959
0.0120	0.0000	124.7849
0.0130	0.0000	124.7733
0.0140	0.0000	124.7612
0.0150	0.0000	124.7485
0.0160	0.0000	124.7352
0.0170	0.0000	124.7214
0.0180	0.0000	124.7071
0.0190	0.0000	124.6921
0.0200	0.0000	124.6767
0.0210	0.0000	124.6606
0.0220	0.0000	124.6440
0.0230	0.0000	124.6268
0.0240	0.0000	124.6091
0.0250	0.0000	124.5908
0.0260	0.0000	124.5720
0.0270	0.0000	124.5526
0.0280	0.0000	124.5326
0.0290	0.0000	124.5121
0.0300	0.0000	124.4910
0.0310	0.0000	124.4694
0.0320	0.0000	124.4472
0.0330	0.0000	124.4244
0.0340	0.0000	124.4011
0.0350	0.0000	124.3772
0.0360	0.0000	124.3528
0.0370	0.0000	124.3278
0.0380	0.0000	124.3022
0.0390	0.0000	124.2761
0.0400	0.0000	124.2494
0.0410	0.0000	124.2222
0.0420	0.0000	124.1944
0.0430	0.0000	124.1660
0.0440	0.0000	124.1371
0.0450	0.0000	124.1076
0.0460	0.0000	124.0776
0.0470	0.0000	124.0470
0.0480	0.0000	124.0158
0.0490	0.0000	123.9841
0.0500	0.0000	123.9518
0.0510	0.0000	123.9190
0.0520	0.0000	123.8856
0.0530	0.0000	123.8516
0.0540	0.0000	123.8171
0.0550	0.0000	123.7820
0.0560	0.0000	123.7464
0.0570	0.0000	123.7102
0.0580	0.0000	123.6735
0.0590	0.0000	123.6361
0.0600	0.0000	123.5983
0.0610	0.0000	123.5598
0.0620	0.0000	123.5208
0.0630	0.0000	123.4813
0.0640	0.0000	123.4412
0.0650	0.0000	123.4005
0.0660	0.0000	123.3593
0.0670	0.0000	123.3175
0.0680	0.0000	123.2751
0.0690	0.0000	123.2322
0.0700	0.0000	123.1887
0.0710	0.0000	123.1447
0.0720	0.0000	123.1001
0.0730	0.0000	123.0550
0.0740	0.0000	123.0093
0.0750	0.0000	122.9630
0.0760	0.0000	122.9162
0.0770	0.0000	122.8688
0.0780	0.0000	122.8208
0.0790	0.0000	122.7723
0.0800	0.0000	122.7232
0.0810	0.0000	122.6736
0.0820	0.0000	122.6234
0.0830	0.0000	122.5727
0.0840	0.0000	122.5214
0.0850	0.0000	122.4695
0.0860	0.0000	122.4171
0.0870	0.0000	122.3641
0.0880	0.0000	122.3105
0.0890	0.0000	122.2564
0.0900	0.0000	122.2018
0.0910	0.0000	122.1465
0.0920	0.0000	122.0907
0.0930	0.0000	122.0344
0.0940	0.0000	121.9775
0.0950	0.0000	121.9200
0.0960	0.0000	121.8620
0.0970	0.0000	121.8034
0.0980	0.0000	121.7443
0.0990	0.0000	121.6846
0.1000	0.0000	121.6243
0.1010	0.0000	121.5635
0.1020	0.0000	121.5021
0.1030	0.0000	121.4401
0.1040	0.0000	121.3776
0.1050	0.0000	121.3146
0.1060	0.0000	121.2510
0.1070	0.0000	121.1868
0.1080	0.0000	121.1220
0.1090	0.0000	121.0567
0.1100	0.0000	120.9909
0.1110	0.0000	120.9245
0.1120	0.0000	120.8575
0.1130	0.0000	120.7899
0.1140	0.0000	120.7218
0.1150	0.0000	120.6532
0.1160	0.0000	120.5839
0.1170	0.0000	120.5142
0.1180	0.0000	120.4438
0.1190	0.0000	120.3729
0.1200	0.0000	120.3015
0.1210	0.0000	120.2295
0.1220	0.0000	120.1569
0.1230	0.0000	120.0837
0.1240	0.0000	120.0100
0.1250	0.0000	119.9358
0.1260	0.0000	119.8610
0.1270	0.0000	119.7856
0.1280	0.0000	119.7096
0.1290	0.0000	119.6332
0.1300	0.0000	119.5561
0.1310	0.0000	119.4785
0.1320	0.0000	119.4003
0.1330	0.0000	119.3216
0.1340	0.0000	119.2423
0.1350	0.0000	119.1624
0.1360	0.0000	119.0820
0.1370	0.0000	119.0010
0.1380	0.0000	118.9195
0.1390	0.0000	118.8374
0.1400	0.0000	118.7547
0.1410	0.0000	118.6715
0.1420	0.0000	118.5878
0.1430	0.0000	118.5034
0.1440	0.0000	118.4185
0.1450	0.0000	118.3331
0.1460	0.0000	118.2471
0.1470	0.0000	118.1605
0.1480	0.0000	118.0734
0.1490	0.0000	117.9857
0.1500	0.0000	117.8974
0.1510	0.0000	117.8086
0.1520	0.0000	117.7192
0.1530	0.0000	117.6293
0.1540	0.0000	117.5388
0.1550	0.0000	117.4478
0.1560	0.0000	117.3562
0.1570	0.0000	117.2640
0.1580	0.0000	117.1713
0.1590	0.0000	117.0780
0.1600	0.0000	116.9841
0.1610	0.0000	116.8897
0.1620	0.0000	116.7948
0.1630	0.0000	116.6992
0.1640	0.0000	116.6031
0.1650	0.0000	116.5065
0.1660	0.0000	116.4093
0.1670	0.0000	116.3115
0.1680	0.0000	116.2132
0.1690	0.0000	116.1143
0.1700	0.0000	116.0149
0.1710	0.0000	115.9149
0.1720	0.0000	115.8143
0.1730	0.0000	115.7132
0.1740	0.0000	115.6115
0.1750	0.0000	115.5092
0.1760	0.0000	115.4064
0.1770	0.0000	115.3031
0.1780	0.0000	115.1991
0.1790	0.0000	115.0947
0.1800	0.0000	114.9896
0.1810	0.0000	114.8840
0.1820	0.0000	114.7778
0.1830	0.0000	114.6711
0.1840	0.0000	114.5638
0.1850	0.0000	114.4560
0.1860	0.0000	114.3476
0.1870	0.0000	114.2386
0.1880	0.0000	114.1291
0.1890	0.0000	114.0190
0.1900	0.0000	113.9084
0.1910	0.0000	113.7972
0.1920	0.0000	113.6854
0.1930	0.0000	113.5731
0.1940	0.0000	113.4602
0.1950	0.0000	113.3468
0.1960	0.0000	113.2328
0.1970	0.0000	113.1182
0.1980	0.0000	113.0031
0.1990	0.0000	112.8874
0.2000	0.0000	112.7712
0.2010	0.0000	112.6544
0.2020	0.0000	112.5370
0.2030	0.0000	112.4191
0.2040	0.0000	112.3006
0.2050	0.0000	112.1816
0.2060	0.0000	112.0620
0.2070	0.0000	111.9419
0.2080	0.0000	111.8211
0.2090	0.0000	111.6999
0.2100	0.0000	111.5780
0.2110	0.0000	111.4556
0.2120	0.0000	111.3327
0.2130	0.0000	111.2092
0.2140	0.0000	111.0851
0.2150	0.0000	110.9605
0.2160	0.0000	110.8353
0.2170	0.0000	110.7095
0.2180	0.0000	110.5832
0.2190	0.0000	110.4563
0.2200	0.0000	110.3289
0.2210	0.0000	110.2009
0.2220	0.0000	110.0723
0.2230	0.0000	109.9432
0.2240	0.0000	109.8136
0.2250	0.0000	109.6833
0.2260	0.0000	109.5525
0.2270	0.0000	109.4212
0.2280	0.0000	109.2893
0.2290	0.0000	109.1568
0.2300	0.0000	109.0238
0.2310	0.0000	108.8902
0.2320	0.0000	108.7560
0.2330	0.0000	108.6213
0.2340	0.0000	108.4861
0.2350	0.0000	108.3502
0.2360	0.0000	108.2138
0.2370	0.0000	108.0769
0.2380	0.0000	107.9394
0.2390	0.0000	107.8013
0.2400	0.0000	107.6627
0.2410	0.0000	107.5235
0.2420	0.0000	107.3838
0.2430	0.0000	107.2434
0.2440	0.0000	107.1026
0.2450	0.0000	106.9612
0.2460	0.0000	106.8192
0.2470	0.0000	106.6766
0.2480	0.0000	106.5335
0.2490	0.0000	106.3898
0.2500	0.0000	106.2456
0.2510	0.0000	106.1008
0.2520	0.0000	105.9555
0.2530	0.0000	105.8096
0.2540	0.0000	105.6631
0.2550	0.0000	105.5161
0.2560	0.0000	105.3685
0.2570	0.0000	105.2204
0.2580	0.0000	105.0717
0.2590	0.0000	104.9224
0.2600	0.0000	104.7726
0.2610	0.0000	104.6222
0.2620	0.0000	104.4713
0.2630	0.0000	104.3198
0.2640	0.0000	104.1677
0.2650	0.0000	104.0151
0.2660	0.0000	103.8619
0.2670	0.0000	103.7082
0.2680	0.0000	103.5539
0.2690	0.0000	103.3990
0.2700	0.0000	103.2436
0.2710	0.0000	103.0876
0.2720	0.0000	102.9311
0.2730	0.0000	102.7740
0.2740	0.0000	102.6163
0.2750	0.0000	102.4581
0.2760	0.0000	102.2993
0.2770	0.0000	102.1400
0.2780	0.0000	101.9801
0.2790	0.0000	101.8196
0.2800	0.0000	101.6586
0.2810	0.0000	101.4970
0.2820	0.0000	101.3349
0.2830	0.0000	101.1722
0.2840	0.0000	101.0089
0.2850	0.0000	100.8451
0.2860	0.0000	100.6807
0.2870	0.0000	100.5158
0.2880	0.0000	100.3503
0.2890	0.0000	100.1842
0.2900	0.0000	100.0176
0.2910	0.0000	99.8505
0.2920	0.0000	99.6827
0.2930	0.0000	99.5144
0.2940	0.0000	99.3456
0.2950	0.0000	99.1762
0.2960	0.0000	99.0062
0.2970	0.0000	98.8357
0.2980	0.0000	98.6646
0.2990	0.0000	98.4929
0.3000	0.0000	98.3207
0.3010	0.0000	98.1479
0.3020	0.0000	97.9746
0.3030	0.0000	97.8007
